<svg xmlns="http://www.w3.org/2000/svg" width="215.9mm" height="279.4mm" viewBox="0 0 215.9 279.4">
<style>text{font-family:"Helvetica Neue",Helvetica,Arial,sans-serif}</style>
<g transform="translate(29.61,50.77) scale(0.3177)">


<circle cx="100" cy="100" r="96" fill="#ffffff" stroke="#333" stroke-width="0.5"/>
<path d="M 15.74,69.29 A 110,110 0 0,1 128.47,33.75 L 123.29,53.07 A 90,90 0 0,0 31.06,82.15 Z" fill="#3a9e5c" stroke="#222" stroke-width="0.4" opacity="0.92"/>
<path d="M 128.47,33.75 A 110,110 0 0,1 155.00,44.74 L 145.00,62.06 A 90,90 0 0,0 123.29,53.07 Z" fill="#d4a017" stroke="#222" stroke-width="0.4" opacity="0.92"/>
<path d="M 155.00,44.74 A 110,110 0 0,1 184.26,69.29 L 168.94,82.15 A 90,90 0 0,0 145.00,62.06 Z" fill="#c0392b" stroke="#222" stroke-width="0.4" opacity="0.92"/>
<line x1="15.74" y1="69.29" x2="33.35" y2="84.08" stroke="#222" stroke-width="1.5"/>
<line x1="22.22" y1="62.22" x2="38.48" y2="78.48" stroke="#555" stroke-width="0.4"/>
<line x1="29.29" y1="55.74" x2="44.08" y2="73.35" stroke="#555" stroke-width="0.4"/>
<line x1="36.91" y1="49.89" x2="50.10" y2="68.73" stroke="#555" stroke-width="0.4"/>
<line x1="45.00" y1="44.74" x2="56.50" y2="64.66" stroke="#555" stroke-width="0.4"/>
<line x1="53.51" y1="40.31" x2="63.23" y2="61.15" stroke="#555" stroke-width="0.8"/>
<line x1="62.38" y1="36.63" x2="70.24" y2="58.25" stroke="#555" stroke-width="0.4"/>
<line x1="71.53" y1="33.75" x2="77.48" y2="55.96" stroke="#555" stroke-width="0.4"/>
<line x1="80.90" y1="31.67" x2="84.89" y2="54.32" stroke="#555" stroke-width="0.4"/>
<line x1="90.41" y1="30.42" x2="92.42" y2="53.33" stroke="#555" stroke-width="0.4"/>
<line x1="100.00" y1="30.00" x2="100.00" y2="53.00" stroke="#555" stroke-width="0.8"/>
<line x1="109.59" y1="30.42" x2="107.58" y2="53.33" stroke="#555" stroke-width="0.4"/>
<line x1="119.10" y1="31.67" x2="115.11" y2="54.32" stroke="#555" stroke-width="0.4"/>
<line x1="128.47" y1="33.75" x2="122.52" y2="55.96" stroke="#222" stroke-width="1.5"/>
<line x1="137.62" y1="36.63" x2="129.76" y2="58.25" stroke="#555" stroke-width="0.4"/>
<line x1="146.49" y1="40.31" x2="136.77" y2="61.15" stroke="#555" stroke-width="0.4"/>
<line x1="155.00" y1="44.74" x2="143.50" y2="64.66" stroke="#222" stroke-width="1.5"/>
<line x1="163.09" y1="49.89" x2="149.90" y2="68.73" stroke="#555" stroke-width="0.4"/>
<line x1="170.71" y1="55.74" x2="155.92" y2="73.35" stroke="#555" stroke-width="0.4"/>
<line x1="177.78" y1="62.22" x2="161.52" y2="78.48" stroke="#555" stroke-width="0.4"/>
<line x1="184.26" y1="69.29" x2="166.65" y2="84.08" stroke="#222" stroke-width="1.5"/>
<text x="100" y="80" text-anchor="middle" dominant-baseline="central" fill="#333" font-size="38">☿</text>
<text x="100" y="110" text-anchor="middle" fill="#666" font-size="5.5" font-weight="bold" letter-spacing="2.5">RETROMETER</text>
<circle cx="100" cy="142" r="3.5" fill="#333"/>
<circle cx="100" cy="142" r="1.5" fill="#999"/>
<circle cx="50" cy="155" r="2.5" fill="none" stroke="#aaa" stroke-width="0.3"/>
<circle cx="150" cy="155" r="2.5" fill="none" stroke="#aaa" stroke-width="0.3"/>

</g>
<g transform="translate(122.75,50.77) scale(0.3177)">


<circle cx="100" cy="100" r="96" fill="#ffffff" stroke="#333" stroke-width="0.5"/>
<path d="M 15.74,69.29 A 110,110 0 0,1 128.47,33.75 L 123.29,53.07 A 90,90 0 0,0 31.06,82.15 Z" fill="#3a9e5c" stroke="#222" stroke-width="0.4" opacity="0.92"/>
<path d="M 128.47,33.75 A 110,110 0 0,1 155.00,44.74 L 145.00,62.06 A 90,90 0 0,0 123.29,53.07 Z" fill="#d4a017" stroke="#222" stroke-width="0.4" opacity="0.92"/>
<path d="M 155.00,44.74 A 110,110 0 0,1 184.26,69.29 L 168.94,82.15 A 90,90 0 0,0 145.00,62.06 Z" fill="#c0392b" stroke="#222" stroke-width="0.4" opacity="0.92"/>
<line x1="15.74" y1="69.29" x2="33.35" y2="84.08" stroke="#222" stroke-width="1.5"/>
<line x1="22.22" y1="62.22" x2="38.48" y2="78.48" stroke="#555" stroke-width="0.4"/>
<line x1="29.29" y1="55.74" x2="44.08" y2="73.35" stroke="#555" stroke-width="0.4"/>
<line x1="36.91" y1="49.89" x2="50.10" y2="68.73" stroke="#555" stroke-width="0.4"/>
<line x1="45.00" y1="44.74" x2="56.50" y2="64.66" stroke="#555" stroke-width="0.4"/>
<line x1="53.51" y1="40.31" x2="63.23" y2="61.15" stroke="#555" stroke-width="0.8"/>
<line x1="62.38" y1="36.63" x2="70.24" y2="58.25" stroke="#555" stroke-width="0.4"/>
<line x1="71.53" y1="33.75" x2="77.48" y2="55.96" stroke="#555" stroke-width="0.4"/>
<line x1="80.90" y1="31.67" x2="84.89" y2="54.32" stroke="#555" stroke-width="0.4"/>
<line x1="90.41" y1="30.42" x2="92.42" y2="53.33" stroke="#555" stroke-width="0.4"/>
<line x1="100.00" y1="30.00" x2="100.00" y2="53.00" stroke="#555" stroke-width="0.8"/>
<line x1="109.59" y1="30.42" x2="107.58" y2="53.33" stroke="#555" stroke-width="0.4"/>
<line x1="119.10" y1="31.67" x2="115.11" y2="54.32" stroke="#555" stroke-width="0.4"/>
<line x1="128.47" y1="33.75" x2="122.52" y2="55.96" stroke="#222" stroke-width="1.5"/>
<line x1="137.62" y1="36.63" x2="129.76" y2="58.25" stroke="#555" stroke-width="0.4"/>
<line x1="146.49" y1="40.31" x2="136.77" y2="61.15" stroke="#555" stroke-width="0.4"/>
<line x1="155.00" y1="44.74" x2="143.50" y2="64.66" stroke="#222" stroke-width="1.5"/>
<line x1="163.09" y1="49.89" x2="149.90" y2="68.73" stroke="#555" stroke-width="0.4"/>
<line x1="170.71" y1="55.74" x2="155.92" y2="73.35" stroke="#555" stroke-width="0.4"/>
<line x1="177.78" y1="62.22" x2="161.52" y2="78.48" stroke="#555" stroke-width="0.4"/>
<line x1="184.26" y1="69.29" x2="166.65" y2="84.08" stroke="#222" stroke-width="1.5"/>
<text x="100" y="80" text-anchor="middle" dominant-baseline="central" fill="#333" font-size="38">☿</text>
<text x="100" y="110" text-anchor="middle" fill="#666" font-size="5.5" font-weight="bold" letter-spacing="2.5">RETROMETER</text>
<circle cx="100" cy="142" r="3.5" fill="#333"/>
<circle cx="100" cy="142" r="1.5" fill="#999"/>
<circle cx="50" cy="155" r="2.5" fill="none" stroke="#aaa" stroke-width="0.3"/>
<circle cx="150" cy="155" r="2.5" fill="none" stroke="#aaa" stroke-width="0.3"/>

</g>
<g transform="translate(29.61,164.09) scale(0.3177)">


<circle cx="100" cy="100" r="96" fill="#ffffff" stroke="#333" stroke-width="0.5"/>
<path d="M 15.74,69.29 A 110,110 0 0,1 128.47,33.75 L 123.29,53.07 A 90,90 0 0,0 31.06,82.15 Z" fill="#3a9e5c" stroke="#222" stroke-width="0.4" opacity="0.92"/>
<path d="M 128.47,33.75 A 110,110 0 0,1 155.00,44.74 L 145.00,62.06 A 90,90 0 0,0 123.29,53.07 Z" fill="#d4a017" stroke="#222" stroke-width="0.4" opacity="0.92"/>
<path d="M 155.00,44.74 A 110,110 0 0,1 184.26,69.29 L 168.94,82.15 A 90,90 0 0,0 145.00,62.06 Z" fill="#c0392b" stroke="#222" stroke-width="0.4" opacity="0.92"/>
<line x1="15.74" y1="69.29" x2="33.35" y2="84.08" stroke="#222" stroke-width="1.5"/>
<line x1="22.22" y1="62.22" x2="38.48" y2="78.48" stroke="#555" stroke-width="0.4"/>
<line x1="29.29" y1="55.74" x2="44.08" y2="73.35" stroke="#555" stroke-width="0.4"/>
<line x1="36.91" y1="49.89" x2="50.10" y2="68.73" stroke="#555" stroke-width="0.4"/>
<line x1="45.00" y1="44.74" x2="56.50" y2="64.66" stroke="#555" stroke-width="0.4"/>
<line x1="53.51" y1="40.31" x2="63.23" y2="61.15" stroke="#555" stroke-width="0.8"/>
<line x1="62.38" y1="36.63" x2="70.24" y2="58.25" stroke="#555" stroke-width="0.4"/>
<line x1="71.53" y1="33.75" x2="77.48" y2="55.96" stroke="#555" stroke-width="0.4"/>
<line x1="80.90" y1="31.67" x2="84.89" y2="54.32" stroke="#555" stroke-width="0.4"/>
<line x1="90.41" y1="30.42" x2="92.42" y2="53.33" stroke="#555" stroke-width="0.4"/>
<line x1="100.00" y1="30.00" x2="100.00" y2="53.00" stroke="#555" stroke-width="0.8"/>
<line x1="109.59" y1="30.42" x2="107.58" y2="53.33" stroke="#555" stroke-width="0.4"/>
<line x1="119.10" y1="31.67" x2="115.11" y2="54.32" stroke="#555" stroke-width="0.4"/>
<line x1="128.47" y1="33.75" x2="122.52" y2="55.96" stroke="#222" stroke-width="1.5"/>
<line x1="137.62" y1="36.63" x2="129.76" y2="58.25" stroke="#555" stroke-width="0.4"/>
<line x1="146.49" y1="40.31" x2="136.77" y2="61.15" stroke="#555" stroke-width="0.4"/>
<line x1="155.00" y1="44.74" x2="143.50" y2="64.66" stroke="#222" stroke-width="1.5"/>
<line x1="163.09" y1="49.89" x2="149.90" y2="68.73" stroke="#555" stroke-width="0.4"/>
<line x1="170.71" y1="55.74" x2="155.92" y2="73.35" stroke="#555" stroke-width="0.4"/>
<line x1="177.78" y1="62.22" x2="161.52" y2="78.48" stroke="#555" stroke-width="0.4"/>
<line x1="184.26" y1="69.29" x2="166.65" y2="84.08" stroke="#222" stroke-width="1.5"/>
<text x="100" y="80" text-anchor="middle" dominant-baseline="central" fill="#333" font-size="38">☿</text>
<text x="100" y="110" text-anchor="middle" fill="#666" font-size="5.5" font-weight="bold" letter-spacing="2.5">RETROMETER</text>
<circle cx="100" cy="142" r="3.5" fill="#333"/>
<circle cx="100" cy="142" r="1.5" fill="#999"/>
<circle cx="50" cy="155" r="2.5" fill="none" stroke="#aaa" stroke-width="0.3"/>
<circle cx="150" cy="155" r="2.5" fill="none" stroke="#aaa" stroke-width="0.3"/>

</g>
<g transform="translate(122.75,164.09) scale(0.3177)">


<circle cx="100" cy="100" r="96" fill="#ffffff" stroke="#333" stroke-width="0.5"/>
<path d="M 15.74,69.29 A 110,110 0 0,1 128.47,33.75 L 123.29,53.07 A 90,90 0 0,0 31.06,82.15 Z" fill="#3a9e5c" stroke="#222" stroke-width="0.4" opacity="0.92"/>
<path d="M 128.47,33.75 A 110,110 0 0,1 155.00,44.74 L 145.00,62.06 A 90,90 0 0,0 123.29,53.07 Z" fill="#d4a017" stroke="#222" stroke-width="0.4" opacity="0.92"/>
<path d="M 155.00,44.74 A 110,110 0 0,1 184.26,69.29 L 168.94,82.15 A 90,90 0 0,0 145.00,62.06 Z" fill="#c0392b" stroke="#222" stroke-width="0.4" opacity="0.92"/>
<line x1="15.74" y1="69.29" x2="33.35" y2="84.08" stroke="#222" stroke-width="1.5"/>
<line x1="22.22" y1="62.22" x2="38.48" y2="78.48" stroke="#555" stroke-width="0.4"/>
<line x1="29.29" y1="55.74" x2="44.08" y2="73.35" stroke="#555" stroke-width="0.4"/>
<line x1="36.91" y1="49.89" x2="50.10" y2="68.73" stroke="#555" stroke-width="0.4"/>
<line x1="45.00" y1="44.74" x2="56.50" y2="64.66" stroke="#555" stroke-width="0.4"/>
<line x1="53.51" y1="40.31" x2="63.23" y2="61.15" stroke="#555" stroke-width="0.8"/>
<line x1="62.38" y1="36.63" x2="70.24" y2="58.25" stroke="#555" stroke-width="0.4"/>
<line x1="71.53" y1="33.75" x2="77.48" y2="55.96" stroke="#555" stroke-width="0.4"/>
<line x1="80.90" y1="31.67" x2="84.89" y2="54.32" stroke="#555" stroke-width="0.4"/>
<line x1="90.41" y1="30.42" x2="92.42" y2="53.33" stroke="#555" stroke-width="0.4"/>
<line x1="100.00" y1="30.00" x2="100.00" y2="53.00" stroke="#555" stroke-width="0.8"/>
<line x1="109.59" y1="30.42" x2="107.58" y2="53.33" stroke="#555" stroke-width="0.4"/>
<line x1="119.10" y1="31.67" x2="115.11" y2="54.32" stroke="#555" stroke-width="0.4"/>
<line x1="128.47" y1="33.75" x2="122.52" y2="55.96" stroke="#222" stroke-width="1.5"/>
<line x1="137.62" y1="36.63" x2="129.76" y2="58.25" stroke="#555" stroke-width="0.4"/>
<line x1="146.49" y1="40.31" x2="136.77" y2="61.15" stroke="#555" stroke-width="0.4"/>
<line x1="155.00" y1="44.74" x2="143.50" y2="64.66" stroke="#222" stroke-width="1.5"/>
<line x1="163.09" y1="49.89" x2="149.90" y2="68.73" stroke="#555" stroke-width="0.4"/>
<line x1="170.71" y1="55.74" x2="155.92" y2="73.35" stroke="#555" stroke-width="0.4"/>
<line x1="177.78" y1="62.22" x2="161.52" y2="78.48" stroke="#555" stroke-width="0.4"/>
<line x1="184.26" y1="69.29" x2="166.65" y2="84.08" stroke="#222" stroke-width="1.5"/>
<text x="100" y="80" text-anchor="middle" dominant-baseline="central" fill="#333" font-size="38">☿</text>
<text x="100" y="110" text-anchor="middle" fill="#666" font-size="5.5" font-weight="bold" letter-spacing="2.5">RETROMETER</text>
<circle cx="100" cy="142" r="3.5" fill="#333"/>
<circle cx="100" cy="142" r="1.5" fill="#999"/>
<circle cx="50" cy="155" r="2.5" fill="none" stroke="#aaa" stroke-width="0.3"/>
<circle cx="150" cy="155" r="2.5" fill="none" stroke="#aaa" stroke-width="0.3"/>

</g>

</svg>